# xmcd
#
# Track frame offsets:
#	150
#	17453
#	36145
#	53934
#	70445
#	90959
#	109835
#
# Disc length: 1750 seconds
#
# Revision: 1
# Processed by: cddbd v1.4PL0 Copyright (c) Steve Scherf et al.
# Submitted via: audiograbber 1.82.01
#
DISCID=5106d407
DTITLE=Laura Khalil - Ha Ta3mol Eh!
DYEAR=1900
DGENRE=
TTITLE0=Abadan
TTITLE1=Ha Ta3mol Eh
TTITLE2=Leila Ya Habibi
TTITLE3=Bahebbak
TTITLE4=Arabi
TTITLE5=Tekram 3aynayk
TTITLE6=Yal Weil
EXTD=
EXTT0=
EXTT1=
EXTT2=
EXTT3=
EXTT4=
EXTT5=
EXTT6=
PLAYORDER=
